<?xml version="1.0" encoding="UTF-8" standalone="no"?>
<!DOCTYPE svg PUBLIC "-//W3C//DTD SVG 1.1//EN"
"http://www.w3.org/Graphics/SVG/1.1/DTD/svg11.dtd">
<svg viewBox="0 0 935 1540" version="1.1" xmlns="http://www.w3.org/2000/svg" xmlns:xlink="http://www.w3.org/1999/xlink">
<defs>
<style type="text/css"><![CDATA[
.g0{
fill: none;
stroke: #000;
stroke-width: 1.1;
stroke-linecap: round;
stroke-linejoin: round;
}
.g1{
fill: #000;
}
.g2{
fill: none;
stroke: #000;
stroke-width: 0.183;
stroke-linecap: round;
stroke-linejoin: round;
}
]]></style>
</defs>
<path d="M627.9,246.4H803.2M563.8,230.3H906.4M55,176.5v87.1M744.9,230.3v33.3M121.5,176.5v87.1M33.2,158.2V263.6m1.3,-1.3H906.4M905.3,158.2V263.6M627.9,158.2V263.6M629,230.3v33.3m18.4,-33.3v33.3m18.3,-33.3v33.3m20.7,-33.3v33.3m20.5,-33.3v33.3M335.7,100.8H904M112.4,119.2H653.2m80.1,0h172M113.5,136.4H344.9m129.6,0H637.1m120.3,0H905.3m-141,93.9v33.3m19.5,-87.1v87.1m19.4,-33.3v32m-77.9,-32v33.3M120.3,154.7h510m142.1,0H905.3M168.5,100.8h96.2M34.5,158.2H905.3M33.2,176.5H906.4M627.9,208.6h157M600.4,230.3v33.3M582.1,230.3v33.3M563.8,176.5v87.1M551.1,176.5v87.1m-17,-87.1v87.1M404.4,176.5v87.1M264.7,176.5v87.1" class="g0"/>
<path d="M538.6,36.8H914.1V35.2H538.6v1.6Z" class="g1"/>
<path d="M529.5,80.3H674.9M529.5,63.1H673.8m85.9,19.4H905.3" class="g0"/>
<image preserveAspectRatio="none" x="33" y="13" width="44" height="47" xlink:href="img/1.jpg"/>
<path d="M267.1,62.9h2V23.1h-2V62.9Z" class="g1"/>
<path d="M266.9,62.9h2.2v-40h-2.2v40Z" class="g2"/>
<image preserveAspectRatio="none" x="607" y="236" width="12" height="23" xlink:href="img/2.jpg"/>
<image preserveAspectRatio="none" x="586" y="236" width="12" height="25" xlink:href="img/3.jpg"/>
<image preserveAspectRatio="none" x="566" y="235" width="13" height="25" xlink:href="img/4.jpg"/>
<path d="M55,259v21.9M121.5,259v21.9M33.2,259v21.9m2.4,0H905.3M404.4,259v21.9M534.1,259v21.9m0,-21.9v21.9m17,-21.9v21.9M563.8,259v21.9M582.1,259v21.9M600.4,259v21.9M627.9,259v21.9M647.4,259v21.9M665.7,259v21.9M686.4,259v21.9M706.9,259v21.9M725.3,259v21.9M744.9,259v21.9M764.3,259v21.9M783.8,259v21.9M803.2,259v21.9M905.3,259v21.9M264.7,259v21.9M55,276.3v21.8m66.5,-21.8v21.8M33.2,276.3v21.8m2.4,0H905.3M404.4,276.3v21.8M534.1,276.3v21.8m0,-21.8v21.8m17,-21.8v21.8m12.7,-21.8v21.8m18.3,-21.8v21.8m18.3,-21.8v21.8m27.5,-21.8v21.8m19.5,-21.8v21.8m18.3,-21.8v21.8m20.7,-21.8v21.8m20.5,-21.8v21.8m18.4,-21.8v21.8m19.6,-21.8v21.8m19.4,-21.8v21.8m19.5,-21.8v21.8m19.4,-21.8v21.8M905.3,276.3v21.8M264.7,276.3v21.8M55,293.5v21.8m66.5,-21.8v21.8M33.2,293.5v21.8m2.4,0H905.3M404.4,293.5v21.8M534.1,293.5v21.8m0,-21.8v21.8m17,-21.8v21.8m12.7,-21.8v21.8m18.3,-21.8v21.8m18.3,-21.8v21.8m27.5,-21.8v21.8m19.5,-21.8v21.8m18.3,-21.8v21.8m20.7,-21.8v21.8m20.5,-21.8v21.8m18.4,-21.8v21.8m19.6,-21.8v21.8m19.4,-21.8v21.8m19.5,-21.8v21.8m19.4,-21.8v21.8M905.3,293.5v21.8M264.7,293.5v21.8M55,310.7v21.9m66.5,-21.9v21.9M33.2,310.7v21.9m2.4,0H905.3M404.4,310.7v21.9M534.1,310.7v21.9m0,-21.9v21.9m17,-21.9v21.9m12.7,-21.9v21.9m18.3,-21.9v21.9m18.3,-21.9v21.9m27.5,-21.9v21.9m19.5,-21.9v21.9m18.3,-21.9v21.9m20.7,-21.9v21.9m20.5,-21.9v21.9m18.4,-21.9v21.9m19.6,-21.9v21.9m19.4,-21.9v21.9m19.5,-21.9v21.9m19.4,-21.9v21.9M905.3,310.7v21.9M264.7,310.7v21.9M55,328v21.8M121.5,328v21.8M33.2,328v21.8m2.4,0H905.3M404.4,328v21.8M534.1,328v21.8m0,-21.8v21.8m17,-21.8v21.8M563.8,328v21.8M582.1,328v21.8M600.4,328v21.8M627.9,328v21.8M647.4,328v21.8M665.7,328v21.8M686.4,328v21.8M706.9,328v21.8M725.3,328v21.8M744.9,328v21.8M764.3,328v21.8M783.8,328v21.8M803.2,328v21.8M905.3,328v21.8M264.7,328v21.8M55,345.2V367m66.5,-21.8V367M33.2,345.2V367m2.4,0H905.3M404.4,345.2V367M534.1,345.2V367m0,-21.8V367m17,-21.8V367m12.7,-21.8V367m18.3,-21.8V367m18.3,-21.8V367m27.5,-21.8V367m19.5,-21.8V367m18.3,-21.8V367m20.7,-21.8V367m20.5,-21.8V367m18.4,-21.8V367m19.6,-21.8V367m19.4,-21.8V367m19.5,-21.8V367m19.4,-21.8V367M905.3,345.2V367M264.7,345.2V367M55,362.4v21.9m66.5,-21.9v21.9M33.2,362.4v21.9m2.4,0H905.3M404.4,362.4v21.9M534.1,362.4v21.9m0,-21.9v21.9m17,-21.9v21.9m12.7,-21.9v21.9m18.3,-21.9v21.9m18.3,-21.9v21.9m27.5,-21.9v21.9m19.5,-21.9v21.9m18.3,-21.9v21.9m20.7,-21.9v21.9m20.5,-21.9v21.9m18.4,-21.9v21.9m19.6,-21.9v21.9m19.4,-21.9v21.9m19.5,-21.9v21.9m19.4,-21.9v21.9M905.3,362.4v21.9M264.7,362.4v21.9M55,379.7v21.8m66.5,-21.8v21.8M33.2,379.7v21.8m2.4,0H905.3M404.4,379.7v21.8M534.1,379.7v21.8m0,-21.8v21.8m17,-21.8v21.8m12.7,-21.8v21.8m18.3,-21.8v21.8m18.3,-21.8v21.8m27.5,-21.8v21.8m19.5,-21.8v21.8m18.3,-21.8v21.8m20.7,-21.8v21.8m20.5,-21.8v21.8m18.4,-21.8v21.8m19.6,-21.8v21.8m19.4,-21.8v21.8m19.5,-21.8v21.8m19.4,-21.8v21.8M905.3,379.7v21.8M264.7,379.7v21.8M55,396.9v21.8m66.5,-21.8v21.8M33.2,396.9v21.8m2.4,0H905.3M404.4,396.9v21.8M534.1,396.9v21.8m0,-21.8v21.8m17,-21.8v21.8m12.7,-21.8v21.8m18.3,-21.8v21.8m18.3,-21.8v21.8m27.5,-21.8v21.8m19.5,-21.8v21.8m18.3,-21.8v21.8m20.7,-21.8v21.8m20.5,-21.8v21.8m18.4,-21.8v21.8m19.6,-21.8v21.8m19.4,-21.8v21.8m19.5,-21.8v21.8m19.4,-21.8v21.8M905.3,396.9v21.8M264.7,396.9v21.8M55,414.1V436m66.5,-21.9V436M33.2,414.1V436m2.4,0H905.3M404.4,414.1V436M534.1,414.1V436m0,-21.9V436m17,-21.9V436m12.7,-21.9V436m18.3,-21.9V436m18.3,-21.9V436m27.5,-21.9V436m19.5,-21.9V436m18.3,-21.9V436m20.7,-21.9V436m20.5,-21.9V436m18.4,-21.9V436m19.6,-21.9V436m19.4,-21.9V436m19.5,-21.9V436m19.4,-21.9V436M905.3,414.1V436M264.7,414.1V436M55,431.4v21.8m66.5,-21.8v21.8M33.2,431.4v21.8m2.4,0H905.3M404.4,431.4v21.8M534.1,431.4v21.8m0,-21.8v21.8m17,-21.8v21.8m12.7,-21.8v21.8m18.3,-21.8v21.8m18.3,-21.8v21.8m27.5,-21.8v21.8m19.5,-21.8v21.8m18.3,-21.8v21.8m20.7,-21.8v21.8m20.5,-21.8v21.8m18.4,-21.8v21.8m19.6,-21.8v21.8m19.4,-21.8v21.8m19.5,-21.8v21.8m19.4,-21.8v21.8M905.3,431.4v21.8M264.7,431.4v21.8M55,448.6v21.8m66.5,-21.8v21.8M33.2,448.6v21.8m2.4,0H905.3M404.4,448.6v21.8M534.1,448.6v21.8m0,-21.8v21.8m17,-21.8v21.8m12.7,-21.8v21.8m18.3,-21.8v21.8m18.3,-21.8v21.8m27.5,-21.8v21.8m19.5,-21.8v21.8m18.3,-21.8v21.8m20.7,-21.8v21.8m20.5,-21.8v21.8m18.4,-21.8v21.8m19.6,-21.8v21.8m19.4,-21.8v21.8m19.5,-21.8v21.8m19.4,-21.8v21.8M905.3,448.6v21.8M264.7,448.6v21.8M55,465.8v21.9m66.5,-21.9v21.9M33.2,465.8v21.9m2.4,0H905.3M404.4,465.8v21.9M534.1,465.8v21.9m0,-21.9v21.9m17,-21.9v21.9m12.7,-21.9v21.9m18.3,-21.9v21.9m18.3,-21.9v21.9m27.5,-21.9v21.9m19.5,-21.9v21.9m18.3,-21.9v21.9m20.7,-21.9v21.9m20.5,-21.9v21.9m18.4,-21.9v21.9m19.6,-21.9v21.9m19.4,-21.9v21.9m19.5,-21.9v21.9m19.4,-21.9v21.9M905.3,465.8v21.9M264.7,465.8v21.9M55,483.1v21.8m66.5,-21.8v21.8M33.2,483.1v21.8m2.4,0H905.3M404.4,483.1v21.8M534.1,483.1v21.8m0,-21.8v21.8m17,-21.8v21.8m12.7,-21.8v21.8m18.3,-21.8v21.8m18.3,-21.8v21.8m27.5,-21.8v21.8m19.5,-21.8v21.8m18.3,-21.8v21.8m20.7,-21.8v21.8m20.5,-21.8v21.8m18.4,-21.8v21.8m19.6,-21.8v21.8m19.4,-21.8v21.8m19.5,-21.8v21.8m19.4,-21.8v21.8M905.3,483.1v21.8M264.7,483.1v21.8M55,500.3v21.8m66.5,-21.8v21.8M33.2,500.3v21.8m2.4,0H905.3M404.4,500.3v21.8M534.1,500.3v21.8m0,-21.8v21.8m17,-21.8v21.8m12.7,-21.8v21.8m18.3,-21.8v21.8m18.3,-21.8v21.8m27.5,-21.8v21.8m19.5,-21.8v21.8m18.3,-21.8v21.8m20.7,-21.8v21.8m20.5,-21.8v21.8m18.4,-21.8v21.8m19.6,-21.8v21.8m19.4,-21.8v21.8m19.5,-21.8v21.8m19.4,-21.8v21.8M905.3,500.3v21.8M264.7,500.3v21.8M55,517.5v21.9m66.5,-21.9v21.9M33.2,517.5v21.9m2.4,0H905.3M404.4,517.5v21.9M534.1,517.5v21.9m0,-21.9v21.9m17,-21.9v21.9m12.7,-21.9v21.9m18.3,-21.9v21.9m18.3,-21.9v21.9m27.5,-21.9v21.9m19.5,-21.9v21.9m18.3,-21.9v21.9m20.7,-21.9v21.9m20.5,-21.9v21.9m18.4,-21.9v21.9m19.6,-21.9v21.9m19.4,-21.9v21.9m19.5,-21.9v21.9m19.4,-21.9v21.9M905.3,517.5v21.9M264.7,517.5v21.9M55,534.8v21.8m66.5,-21.8v21.8M33.2,534.8v21.8m2.4,0H905.3M404.4,534.8v21.8M534.1,534.8v21.8m0,-21.8v21.8m17,-21.8v21.8m12.7,-21.8v21.8m18.3,-21.8v21.8m18.3,-21.8v21.8m27.5,-21.8v21.8m19.5,-21.8v21.8m18.3,-21.8v21.8m20.7,-21.8v21.8m20.5,-21.8v21.8m18.4,-21.8v21.8m19.6,-21.8v21.8m19.4,-21.8v21.8m19.5,-21.8v21.8m19.4,-21.8v21.8M905.3,534.8v21.8M264.7,534.8v21.8M55,552v21.8M121.5,552v21.8M33.2,552v21.8m2.4,0H905.3M404.4,552v21.8M534.1,552v21.8m0,-21.8v21.8m17,-21.8v21.8M563.8,552v21.8M582.1,552v21.8M600.4,552v21.8M627.9,552v21.8M647.4,552v21.8M665.7,552v21.8M686.4,552v21.8M706.9,552v21.8M725.3,552v21.8M744.9,552v21.8M764.3,552v21.8M783.8,552v21.8M803.2,552v21.8M905.3,552v21.8M264.7,552v21.8M55,569.2v21.9m66.5,-21.9v21.9M33.2,569.2v21.9m2.4,0H905.3M404.4,569.2v21.9M534.1,569.2v21.9m0,-21.9v21.9m17,-21.9v21.9m12.7,-21.9v21.9m18.3,-21.9v21.9m18.3,-21.9v21.9m27.5,-21.9v21.9m19.5,-21.9v21.9m18.3,-21.9v21.9m20.7,-21.9v21.9m20.5,-21.9v21.9m18.4,-21.9v21.9m19.6,-21.9v21.9m19.4,-21.9v21.9m19.5,-21.9v21.9m19.4,-21.9v21.9M905.3,569.2v21.9M264.7,569.2v21.9M55,586.5v21.8m66.5,-21.8v21.8M33.2,586.5v21.8m2.4,0H905.3M404.4,586.5v21.8M534.1,586.5v21.8m0,-21.8v21.8m17,-21.8v21.8m12.7,-21.8v21.8m18.3,-21.8v21.8m18.3,-21.8v21.8m27.5,-21.8v21.8m19.5,-21.8v21.8m18.3,-21.8v21.8m20.7,-21.8v21.8m20.5,-21.8v21.8m18.4,-21.8v21.8m19.6,-21.8v21.8m19.4,-21.8v21.8m19.5,-21.8v21.8m19.4,-21.8v21.8M905.3,586.5v21.8M264.7,586.5v21.8M55,603.7v21.8m66.5,-21.8v21.8M33.2,603.7v21.8m2.4,0H905.3M404.4,603.7v21.8M534.1,603.7v21.8m0,-21.8v21.8m17,-21.8v21.8m12.7,-21.8v21.8m18.3,-21.8v21.8m18.3,-21.8v21.8m27.5,-21.8v21.8m19.5,-21.8v21.8m18.3,-21.8v21.8m20.7,-21.8v21.8m20.5,-21.8v21.8m18.4,-21.8v21.8m19.6,-21.8v21.8m19.4,-21.8v21.8m19.5,-21.8v21.8m19.4,-21.8v21.8M905.3,603.7v21.8M264.7,603.7v21.8M55,621v21.8M121.5,621v21.8M33.2,621v21.8m2.4,0H905.3M404.4,621v21.8M534.1,621v21.8m0,-21.8v21.8m17,-21.8v21.8M563.8,621v21.8M582.1,621v21.8M600.4,621v21.8M627.9,621v21.8M647.4,621v21.8M665.7,621v21.8M686.4,621v21.8M706.9,621v21.8M725.3,621v21.8M744.9,621v21.8M764.3,621v21.8M783.8,621v21.8M803.2,621v21.8M905.3,621v21.8M264.7,621v21.8M55,638.2V660m66.5,-21.8V660M33.2,638.2V660m2.4,0H905.3M404.4,638.2V660M534.1,638.2V660m0,-21.8V660m17,-21.8V660m12.7,-21.8V660m18.3,-21.8V660m18.3,-21.8V660m27.5,-21.8V660m19.5,-21.8V660m18.3,-21.8V660m20.7,-21.8V660m20.5,-21.8V660m18.4,-21.8V660m19.6,-21.8V660m19.4,-21.8V660m19.5,-21.8V660m19.4,-21.8V660M905.3,638.2V660M264.7,638.2V660M55,655.4v21.8m66.5,-21.8v21.8M33.2,655.4v21.8m2.4,0H905.3M404.4,655.4v21.8M534.1,655.4v21.8m0,-21.8v21.8m17,-21.8v21.8m12.7,-21.8v21.8m18.3,-21.8v21.8m18.3,-21.8v21.8m27.5,-21.8v21.8m19.5,-21.8v21.8m18.3,-21.8v21.8m20.7,-21.8v21.8m20.5,-21.8v21.8m18.4,-21.8v21.8m19.6,-21.8v21.8m19.4,-21.8v21.8m19.5,-21.8v21.8m19.4,-21.8v21.8M905.3,655.4v21.8M264.7,655.4v21.8M55,672.6v21.9m66.5,-21.9v21.9M33.2,672.6v21.9m2.4,0H905.3M404.4,672.6v21.9M534.1,672.6v21.9m0,-21.9v21.9m17,-21.9v21.9m12.7,-21.9v21.9m18.3,-21.9v21.9m18.3,-21.9v21.9m27.5,-21.9v21.9m19.5,-21.9v21.9m18.3,-21.9v21.9m20.7,-21.9v21.9m20.5,-21.9v21.9m18.4,-21.9v21.9m19.6,-21.9v21.9m19.4,-21.9v21.9m19.5,-21.9v21.9m19.4,-21.9v21.9M905.3,672.6v21.9M264.7,672.6v21.9M55,689.9v21.8m66.5,-21.8v21.8M33.2,689.9v21.8m2.4,0H905.3M404.4,689.9v21.8M534.1,689.9v21.8m0,-21.8v21.8m17,-21.8v21.8m12.7,-21.8v21.8m18.3,-21.8v21.8m18.3,-21.8v21.8m27.5,-21.8v21.8m19.5,-21.8v21.8m18.3,-21.8v21.8m20.7,-21.8v21.8m20.5,-21.8v21.8m18.4,-21.8v21.8m19.6,-21.8v21.8m19.4,-21.8v21.8m19.5,-21.8v21.8m19.4,-21.8v21.8M905.3,689.9v21.8M264.7,689.9v21.8M55,707.1v21.8m66.5,-21.8v21.8M33.2,707.1v21.8m2.4,0H905.3M404.4,707.1v21.8M534.1,707.1v21.8m0,-21.8v21.8m17,-21.8v21.8m12.7,-21.8v21.8m18.3,-21.8v21.8m18.3,-21.8v21.8m27.5,-21.8v21.8m19.5,-21.8v21.8m18.3,-21.8v21.8m20.7,-21.8v21.8m20.5,-21.8v21.8m18.4,-21.8v21.8m19.6,-21.8v21.8m19.4,-21.8v21.8m19.5,-21.8v21.8m19.4,-21.8v21.8M905.3,707.1v21.8M264.7,707.1v21.8M55,724.3v21.9m66.5,-21.9v21.9M33.2,724.3v21.9m2.4,0H905.3M404.4,724.3v21.9M534.1,724.3v21.9m0,-21.9v21.9m17,-21.9v21.9m12.7,-21.9v21.9m18.3,-21.9v21.9m18.3,-21.9v21.9m27.5,-21.9v21.9m19.5,-21.9v21.9m18.3,-21.9v21.9m20.7,-21.9v21.9m20.5,-21.9v21.9m18.4,-21.9v21.9m19.6,-21.9v21.9m19.4,-21.9v21.9m19.5,-21.9v21.9m19.4,-21.9v21.9M905.3,724.3v21.9M264.7,724.3v21.9M55,741.6v21.8m66.5,-21.8v21.8M33.2,741.6v21.8m2.4,0H905.3M404.4,741.6v21.8M534.1,741.6v21.8m0,-21.8v21.8m17,-21.8v21.8m12.7,-21.8v21.8m18.3,-21.8v21.8m18.3,-21.8v21.8m27.5,-21.8v21.8m19.5,-21.8v21.8m18.3,-21.8v21.8m20.7,-21.8v21.8m20.5,-21.8v21.8m18.4,-21.8v21.8m19.6,-21.8v21.8m19.4,-21.8v21.8m19.5,-21.8v21.8m19.4,-21.8v21.8M905.3,741.6v21.8M264.7,741.6v21.8M55,758.8v21.8m66.5,-21.8v21.8M33.2,758.8v21.8m2.4,0H905.3M404.4,758.8v21.8M534.1,758.8v21.8m0,-21.8v21.8m17,-21.8v21.8m12.7,-21.8v21.8m18.3,-21.8v21.8m18.3,-21.8v21.8m27.5,-21.8v21.8m19.5,-21.8v21.8m18.3,-21.8v21.8m20.7,-21.8v21.8m20.5,-21.8v21.8m18.4,-21.8v21.8m19.6,-21.8v21.8m19.4,-21.8v21.8m19.5,-21.8v21.8m19.4,-21.8v21.8M905.3,758.8v21.8M264.7,758.8v21.8M55,776v21.9M121.5,776v21.9M33.2,776v21.9m2.4,0H905.3M404.4,776v21.9M534.1,776v21.9m0,-21.9v21.9m17,-21.9v21.9M563.8,776v21.9M582.1,776v21.9M600.4,776v21.9M627.9,776v21.9M647.4,776v21.9M665.7,776v21.9M686.4,776v21.9M706.9,776v21.9M725.3,776v21.9M744.9,776v21.9M764.3,776v21.9M783.8,776v21.9M803.2,776v21.9M905.3,776v21.9M264.7,776v21.9M55,793.3v21.8m66.5,-21.8v21.8M33.2,793.3v21.8m2.4,0H905.3M404.4,793.3v21.8M534.1,793.3v21.8m0,-21.8v21.8m17,-21.8v21.8m12.7,-21.8v21.8m18.3,-21.8v21.8m18.3,-21.8v21.8m27.5,-21.8v21.8m19.5,-21.8v21.8m18.3,-21.8v21.8m20.7,-21.8v21.8m20.5,-21.8v21.8m18.4,-21.8v21.8m19.6,-21.8v21.8m19.4,-21.8v21.8m19.5,-21.8v21.8m19.4,-21.8v21.8M905.3,793.3v21.8M264.7,793.3v21.8M55,810.5v21.8m66.5,-21.8v21.8M33.2,810.5v21.8m2.4,0H905.3M404.4,810.5v21.8M534.1,810.5v21.8m0,-21.8v21.8m17,-21.8v21.8m12.7,-21.8v21.8m18.3,-21.8v21.8m18.3,-21.8v21.8m27.5,-21.8v21.8m19.5,-21.8v21.8m18.3,-21.8v21.8m20.7,-21.8v21.8m20.5,-21.8v21.8m18.4,-21.8v21.8m19.6,-21.8v21.8m19.4,-21.8v21.8m19.5,-21.8v21.8m19.4,-21.8v21.8M905.3,810.5v21.8M264.7,810.5v21.8M55,827.7v21.9m66.5,-21.9v21.9M33.2,827.7v21.9m2.4,0H905.3M404.4,827.7v21.9M534.1,827.7v21.9m0,-21.9v21.9m17,-21.9v21.9m12.7,-21.9v21.9m18.3,-21.9v21.9m18.3,-21.9v21.9m27.5,-21.9v21.9m19.5,-21.9v21.9m18.3,-21.9v21.9m20.7,-21.9v21.9m20.5,-21.9v21.9m18.4,-21.9v21.9m19.6,-21.9v21.9m19.4,-21.9v21.9m19.5,-21.9v21.9m19.4,-21.9v21.9M905.3,827.7v21.9M264.7,827.7v21.9M55,845v21.8M121.5,845v21.8M33.2,845v21.8m2.4,0H905.3M404.4,845v21.8M534.1,845v21.8m0,-21.8v21.8m17,-21.8v21.8M563.8,845v21.8M582.1,845v21.8M600.4,845v21.8M627.9,845v21.8M647.4,845v21.8M665.7,845v21.8M686.4,845v21.8M706.9,845v21.8M725.3,845v21.8M744.9,845v21.8M764.3,845v21.8M783.8,845v21.8M803.2,845v21.8M905.3,845v21.8M264.7,845v21.8m364.3,0v86m18.4,-86v86m18.3,-86v86m20.7,-86v86m20.5,-86v86m18.4,-86v86m19.6,-86v86m19.4,-86v86m19.5,-86v86m19.4,-86v86M344.9,882.9H906.4M344.9,900H906.4M344.9,917.2H906.4M344.9,934.4H906.4M344.9,866.8v86m560.4,-86v86M34.5,951.7H905.3M55,968.7v187.9M344.9,951.7v204.9M34.5,1002.1H905.3M34.5,1018H905.3M34.5,1035.3H905.3M34.5,1052.5H905.3M34.5,1069.6H905.3M34.5,1086.8H905.3M34.5,1104H905.3M34.5,1138.3H905.3M34.5,1155.5H905.3M602.8,951.7v204.9M716.1,951.7v204.9M530.6,951.7v204.9M34.5,968.7H343.8M33.2,951.7v204.9M34.5,986H905.3M87.1,986v170.6M717.4,968.7h189m-1.1,-17v204.9M33.2,866.8v86M812.4,1104v52.6m-648.5,15.1H905.3M33.2,1190H905.3m-852.5,0H493.9M33.2,1206H456.1M33.2,1222.1H269.3M33.2,1238H269.3M33.2,1273.6H269.3M33.2,1290.9H269.3M33.2,1311.4H269.3m-1.1,-103V1340M456.1,1191.1V1340M33.2,1190v150m0,-1.1H456.1M484.7,1190H906.4m-421.7,16H906.4m-421.7,16.1H731.1M484.7,1238H731.1m-246.4,35.6H731.1m-246.4,17.3H731.1m-246.4,20.5H731.1m0,-105.4v134M905.3,1191.1V1340M484.7,1190v150m0,-1.1H906.4" class="g0"/>
</svg>